<svg width="24" height="24" viewBox="0 0 24 24" fill="none" xmlns="http://www.w3.org/2000/svg">
<g clip-path="url(#clip0_159_339)">
<path d="M20.9998 6.7049C20.3257 6.98937 19.6108 7.1761 18.8787 7.25887C19.6412 6.82346 20.2267 6.13398 20.5024 5.31247C19.7776 5.72228 18.9845 6.01101 18.1574 6.1662C17.4838 5.48248 16.5241 5.05518 15.4619 5.05518C13.4224 5.05518 11.7689 6.63041 11.7689 8.57326C11.7689 8.84904 11.8015 9.11752 11.8645 9.37508C8.79533 9.22831 6.07424 7.82771 4.25279 5.69918C3.93498 6.21878 3.75287 6.82319 3.75287 7.46786C3.75287 8.68848 4.40488 9.76527 5.39572 10.3962C4.80928 10.3787 4.23574 10.2278 3.72299 9.95611C3.72278 9.97085 3.72278 9.98559 3.72278 10.0004C3.72278 11.705 4.99572 13.1269 6.68504 13.4501C6.14124 13.591 5.57082 13.6117 5.01737 13.5104C5.48727 14.9082 6.85112 15.9253 8.46705 15.9537C7.20318 16.8973 5.61081 17.4598 3.8807 17.4598C3.58258 17.4598 3.28867 17.4431 2.99976 17.4106C4.63403 18.4088 6.57515 18.9913 8.66062 18.9913C15.4533 18.9913 19.1677 13.6303 19.1677 8.98127C19.1677 8.82868 19.1642 8.67695 19.157 8.5261C19.88 8.02819 20.504 7.41147 20.9998 6.7049Z" fill="white"/>
</g>
<defs>
<clipPath id="clip0_159_339">
<rect width="18" height="14" fill="white" transform="translate(2.99976 5)"/>
</clipPath>
</defs>
</svg>
